<?xml version="1.0" standalone="no"?><!DOCTYPE svg PUBLIC "-//W3C//DTD SVG 1.1//EN" "http://www.w3.org/Graphics/SVG/1.1/DTD/svg11.dtd"><svg t="1656052603344" class="icon" viewBox="0 0 1024 1024" version="1.1" xmlns="http://www.w3.org/2000/svg" p-id="3130" xmlns:xlink="http://www.w3.org/1999/xlink" width="32" height="32"><defs><style type="text/css">@font-face { font-family: feedback-iconfont; src: url("//at.alicdn.com/t/font_1031158_u69w8yhxdu.woff2?t=1630033759944") format("woff2"), url("//at.alicdn.com/t/font_1031158_u69w8yhxdu.woff?t=1630033759944") format("woff"), url("//at.alicdn.com/t/font_1031158_u69w8yhxdu.ttf?t=1630033759944") format("truetype"); }
</style></defs><path d="M512 0C229.248 0 0 229.205333 0 512s229.248 512 512 512 512-229.205333 512-512S794.752 0 512 0z" p-id="3131" data-spm-anchor-id="a313x.7781069.0.i2" class="selected" fill="#e6e6e6"></path><path d="M361.130667 300.8L512 451.626667l150.912-150.826667a42.666667 42.666667 0 0 1 60.330667 60.330667L572.330667 512l150.869333 150.912a42.666667 42.666667 0 0 1-60.330667 60.330667l-150.912-150.869334-150.826666 150.869334a42.666667 42.666667 0 1 1-60.330667-60.330667l150.826667-150.912L300.8 361.130667A42.666667 42.666667 0 0 1 361.130667 300.8z" p-id="3132"></path></svg>