<svg xmlns="http://www.w3.org/2000/svg" xmlns:xlink="http://www.w3.org/1999/xlink" fill="none" version="1.1" width="43.9559440612793" height="42.79202651977539" viewBox="0 0 43.9559440612793 42.79202651977539"><g style="mix-blend-mode:passthrough"><path d="M21.9804,0.0000557578C9.83616,-0.00485497,0,9.82642,0,21.9608C0,31.5563,6.15313,39.7131,14.7224,42.7086C15.8764,42.9983,15.6996,42.1782,15.6996,41.6184L15.6996,37.8126C9.03573,38.5934,8.76567,34.1836,8.3188,33.447C7.41522,31.905,5.27906,31.5122,5.91746,30.7755C7.43487,29.9947,8.98175,30.972,10.7742,33.6189C12.0706,35.5389,14.5996,35.2148,15.8813,34.8956C16.1612,33.7416,16.7603,32.7104,17.5853,31.9099C10.6809,30.6724,7.80319,26.459,7.80319,21.4501C7.80319,19.0193,8.60364,16.7849,10.1751,14.9827C9.17328,12.0117,10.2684,9.46792,10.4157,9.0898C13.2688,8.83444,16.2349,11.1327,16.4657,11.3144C18.0862,10.8773,19.9376,10.6465,22.0099,10.6465C24.0921,10.6465,25.9483,10.8871,27.5836,11.3291C28.1385,10.9068,30.8885,8.93265,33.5403,9.17328C33.6827,9.5514,34.7532,12.0362,33.8104,14.9679C35.4015,16.7751,36.2117,19.0291,36.2117,21.4648C36.2117,26.4836,33.3144,30.7018,26.3903,31.9197L26.3903,31.9197C27.5883,33.0979,28.2625,34.7082,28.2613,36.3885L28.2613,41.913C28.3006,42.355,28.2613,42.792,28.9979,42.792C37.6948,39.8603,43.9559,31.6447,43.9559,21.9657C43.9559,9.82636,34.1148,0,21.9805,0L21.9804,0.0000557578Z" fill="#000000" fill-opacity="1"/></g></svg>