<svg xmlns="http://www.w3.org/2000/svg" xmlns:xlink="http://www.w3.org/1999/xlink" fill="none" version="1.1" width="49.22904586791992" height="47.17649841308594" viewBox="0 0 49.22904586791992 47.17649841308594"><g style="mix-blend-mode:passthrough"><path d="M27.0418,0C41.3582,0,45.6626,13.6611,47.844,27.7495L47.844,27.7494C49.2811,37.0415,49.2288,42.3181,49.2288,42.3181C49.2288,42.3181,45.7611,41.5089,45.0658,42.3181C44.3704,43.1305,38.8261,47.1765,33.2787,47.1765C29.4664,47.1765,29.8143,42.3181,29.8143,42.3181L24.9622,42.3181C24.9622,42.3181,26.2327,47.1765,21.4945,47.1765C16.7561,47.1765,9.70736,42.3181,9.70736,42.3181L0,42.3181C0,42.3181,0.809231,-0.00300101,27.0418,0ZM16.71,19.6915C16.71,28.3126,17.9253,35.3,29.8817,35.3C42.4443,35.3,43.0535,28.3126,43.0535,19.6914C43.0535,11.0703,38.3707,4.07983,29.8817,4.07983C22.6081,4.07983,16.71,11.0703,16.71,19.6915ZM24.9989,19.5347C23.0839,19.5347,21.5312,17.982,21.5312,16.067C21.5312,14.152,23.0839,12.5994,24.9989,12.5994C26.9139,12.5994,28.4666,14.152,28.4666,16.067C28.4666,17.982,26.9139,19.5347,24.9989,19.5347ZM37.1337,19.5347C35.4106,19.5347,34.0139,17.982,34.0139,16.067C34.0139,14.152,35.4106,12.5994,37.1337,12.5994C38.8567,12.5994,40.2536,14.152,40.2536,16.067C40.2536,17.982,38.8567,19.5347,37.1337,19.5347ZM31.934,31.331C30.7853,31.331,29.854,30.554,29.854,29.5955C29.854,28.6373,30.7853,27.8604,31.934,27.8604C33.0827,27.8604,34.014,28.6373,34.014,29.5955C34.014,30.554,33.0828,31.331,31.934,31.331Z" fill-rule="evenodd" fill="#60677A" fill-opacity="1"/></g></svg>