<svg xmlns="http://www.w3.org/2000/svg" xmlns:xlink="http://www.w3.org/1999/xlink" fill="none" version="1.1" width="34.538814544677734" height="34.811744689941406" viewBox="0 0 34.538814544677734 34.811744689941406"><g style="mix-blend-mode:passthrough"><path d="M25.5092,34.8117L2.26868,31.8287C-0.241992,31.5064,-0.111796,23.6145,0.109063,21.0928L1.22771,8.32161C1.44857,5.79994,4.4227,3.1559,6.92967,2.80605L26.9721,0.00942398C29.4791,-0.340342,34.5879,9.14674,34.5385,11.6775L34.1656,30.8033L25.5092,34.8117ZM9.15014,9.7681C9.15014,9.7681,12.5968,7.65975,17.5101,7.65975C22.4235,7.65975,25.8702,9.7681,25.8702,9.7681C23.9818,8.08144,20.6818,7.10975,20.6818,7.10975L20.9935,6.7981C24.0918,6.8531,26.8968,8.9981,26.8968,8.9981C30.0502,15.5798,29.8485,21.2631,29.8485,21.2631C27.2818,24.5815,23.4685,24.3431,23.4685,24.3431L22.1668,22.6931C24.4585,22.1981,25.9068,20.1631,25.9068,20.1631C25.9068,20.1631,22.4601,22.5098,17.5101,22.5098C12.5601,22.5098,9.11348,20.1631,9.11348,20.1631C9.11348,20.1631,10.5618,22.1981,12.8535,22.6931L11.5518,24.3431C11.5518,24.3431,7.73848,24.5815,5.17178,21.2631C5.17178,21.2631,4.97013,15.5798,8.12348,8.9981C8.12348,8.9981,10.9285,6.8531,14.0268,6.7981L14.3385,7.10975C14.3385,7.10975,11.0385,8.08144,9.15014,9.7681ZM15.8603,16.9365C15.8786,15.6532,14.9069,14.6082,13.7153,14.6082C12.5236,14.6082,11.5886,15.6532,11.5886,16.9365C11.5886,18.2015,12.5419,19.2648,13.7153,19.2648C14.9069,19.2648,15.8603,18.2015,15.8603,16.9365ZM23.5053,16.9365C23.5053,15.6532,22.552,14.6082,21.3603,14.6082C20.1686,14.6082,19.2336,15.6532,19.2336,16.9365C19.2336,18.2015,20.1869,19.2648,21.3603,19.2648C22.552,19.2648,23.5053,18.2015,23.5053,16.9365Z" fill-rule="evenodd" fill="#738BD8" fill-opacity="1"/></g></svg>