<svg xmlns="http://www.w3.org/2000/svg" xmlns:xlink="http://www.w3.org/1999/xlink" fill="none" version="1.1" width="40.70004653930664" height="44.00004959106445" viewBox="0 0 40.70004653930664 44.00004959106445"><g style="mix-blend-mode:passthrough"><path d="M25.96,30.47C25.795,28.765,25.85,27.5,25.85,25.905C26.62,25.465,29.37,22.825,29.59,20.625C30.195,20.57,31.185,19.965,31.46,17.545C31.625,16.28,31.02,15.51,30.635,15.29C31.625,12.265,32.065,2.805,25.135,1.87C24.42,0.660001,22.605,0,20.24,0C10.78,0.165,7.97501,7.26001,10.065,15.345C9.68001,15.565,9.07501,16.28,9.24001,17.6C9.51501,20.02,10.505,20.625,11.11,20.68C11.33,22.935,14.08,25.575,14.85,25.96C14.85,27.555,14.905,28.765,14.74,30.525C12.87,35.585,0.605001,32.945,0,44L40.7,44C40.37,32.78,27.83,35.585,25.96,30.47Z" fill="#E3E4E8" fill-opacity="1"/></g></svg>