<svg xmlns="http://www.w3.org/2000/svg" xmlns:xlink="http://www.w3.org/1999/xlink" fill="none" version="1.1" width="44.00004959106445" height="44.00004959106445" viewBox="0 0 44.00004959106445 44.00004959106445"><g style="mix-blend-mode:passthrough"><path d="M22,0C34.1501,0,44,9.85,44,22C44,34.1501,34.1501,44,22,44C9.85,44,0,34.1501,0,22C0,9.85,9.85,0,22,0ZM11.3141,29.8921C10.9221,29.8921,10.5341,29.8661,10.1541,29.8181L10.1541,29.8181C12.304,31.2941,14.86,32.1541,17.6021,32.1521C26.5421,32.1561,31.4321,24.3741,31.4321,17.6261C31.4321,17.4061,31.4281,17.1861,31.4181,16.9661C32.3681,16.2581,33.1921,15.3721,33.8441,14.3581C32.9721,14.7521,32.0361,15.0121,31.0521,15.1221C32.0561,14.5041,32.8281,13.5161,33.1901,12.3301C32.2521,12.9001,31.2121,13.3081,30.1041,13.5201C29.2181,12.5121,27.9541,11.8701,26.5561,11.8461C23.8721,11.8021,21.6961,14.0701,21.6961,16.9121C21.6961,17.3141,21.7381,17.7081,21.8221,18.0861C17.7841,17.8241,14.2021,15.7201,11.8041,12.5501C11.3861,13.3101,11.1461,14.1981,11.1461,15.1501C11.1461,16.9501,12.0041,18.5501,13.3061,19.4921C12.5081,19.4561,11.7601,19.2161,11.1041,18.8201L11.1041,18.8861C11.1041,21.4001,12.7801,23.5101,15.0041,24.0021C14.5961,24.1181,14.1681,24.1781,13.7241,24.1761C13.4121,24.1741,13.1061,24.1381,12.8101,24.0761C13.4281,26.1401,15.2221,27.6441,17.3501,27.6941C15.6881,29.0741,13.5921,29.8961,11.3141,29.8921Z" fill-rule="evenodd" fill="#1D9BF0" fill-opacity="1"/></g></svg>